Coordinates
version=1
nRows=14
nColumns=40
inDegrees=yes

Units are S.I. units (second, meters, Newtons, ...)
Angles are in degrees.

endheader
time	pelvis_tilt	pelvis_list	pelvis_rotation	pelvis_tx	pelvis_ty	pelvis_tz	hip_flexion_r	hip_adduction_r	hip_rotation_r	knee_angle_r	knee_angle_r_beta	ankle_angle_r	subtalar_angle_r	mtp_angle_r	hip_flexion_l	hip_adduction_l	hip_rotation_l	knee_angle_l	knee_angle_l_beta	ankle_angle_l	subtalar_angle_l	mtp_angle_l	lumbar_extension	lumbar_bending	lumbar_rotation	arm_flex_r	arm_add_r	arm_rot_r	elbow_flex_r	pro_sup_r	wrist_flex_r	wrist_dev_r	arm_flex_l	arm_add_l	arm_rot_l	elbow_flex_l	pro_sup_l	wrist_flex_l	wrist_dev_l
     12.32250000	     -5.49417665	     -4.63822801	    -10.83285138	      1.06689306	      0.92444279	      0.56124446	     19.02412874	      4.50518484	     -7.20370091	     22.21659812	     22.21659812	     10.09904366	      2.31375911	     -2.17548560	      7.73755444	    -12.52098760	     -9.83647160	     42.94577576	     42.94577576	     12.95507027	    -18.13417438	      1.53104336	     -9.65305518	      8.74464524	      1.35922931	      1.39120640	    -16.80572715	    -20.49543453	     44.61350169	     45.75797160	      0.00000000	      0.00000000	     23.83231187	    -15.36665924	    -20.18061766	     82.24767713	     48.73665723	      0.00000000	      0.00000000
     12.34171429	     -5.51116553	     -4.58371688	    -10.29335986	      1.06650850	      0.92497547	      0.56470994	     18.41446381	      4.55945514	     -7.58461838	     21.77747611	     21.77747611	     10.36076579	      2.34482725	     -2.36835725	      9.80566321	    -12.78327674	     -7.99660972	     46.57163160	     46.57163160	     13.48152454	    -18.26439789	      6.52411939	     -9.51135719	      8.70745130	      1.33998703	      2.23042833	    -17.66244691	    -19.42992173	     46.02934796	     45.66868908	      0.00000000	      0.00000000	     22.92569807	    -14.82154957	    -19.38333147	     78.76463136	     48.57742754	      0.00000000	      0.00000000
     12.36092857	     -5.40239700	     -4.63775994	     -9.74545172	      1.06589711	      0.92553389	      0.56798124	     17.69889768	      4.73743908	     -7.84554192	     21.39618332	     21.39618332	     10.61318312	      2.11887022	     -2.42999901	     11.55939307	    -13.15444777	     -6.50172521	     49.55206338	     49.55206338	     12.88554366	    -18.56959624	      8.05429942	     -9.62090213	      8.73321362	      0.98405929	      3.79697773	    -18.22657055	    -19.27209081	     47.04907183	     45.63735900	      0.00000000	      0.00000000	     21.39933457	    -14.44221272	    -18.71256250	     76.41238781	     48.46764643	      0.00000000	      0.00000000
     12.38014286	     -5.30852830	     -4.67693155	     -9.15439342	      1.06511950	      0.92600932	      0.57104236	     16.99273343	      4.92564619	     -8.00761792	     20.97603901	     20.97603901	     10.88690658	      1.72441987	     -2.54056004	     13.35437145	    -13.39940982	     -4.99122724	     52.18743470	     52.18743470	     12.79460766	    -18.81333066	     10.40411100	     -9.66933298	      8.72231838	      0.81629143	      5.26419067	    -18.80677011	    -18.91009291	     47.86185825	     45.60425214	      0.00000000	      0.00000000	     20.13546088	    -13.92475782	    -17.81828630	     73.35518480	     48.33278568	      0.00000000	      0.00000000
     12.39935714	     -5.13962052	     -4.68660519	     -8.55527270	      1.06409663	      0.92647637	      0.57381211	     16.30543436	      5.06273296	     -8.14899857	     20.67861431	     20.67861431	     11.05772244	      1.19078521	     -2.86016754	     15.14649119	    -13.48382827	     -3.53879984	     54.57055820	     54.57055820	     13.81297149	    -18.96931901	     15.00403959	     -9.80916155	      8.62951673	      1.29180288	      6.20581914	    -19.70558777	    -18.24253101	     48.57353192	     45.56650853	      0.00000000	      0.00000000	     19.64359993	    -13.09328975	    -16.17264181	     69.18202827	     48.12188773	      0.00000000	      0.00000000
     12.41857143	     -4.93793945	     -4.69482556	     -7.90471641	      1.06296170	      0.92689690	      0.57649313	     15.60495800	      5.21945559	     -8.19315330	     20.41710576	     20.41710576	     11.33464592	      0.47178433	     -2.87061411	     16.72316011	    -13.64494742	     -2.46619152	     56.15218748	     56.15218748	     13.90363671	    -19.17325929	     16.20764353	    -10.01595655	      8.51362095	      0.83685003	      7.94845312	    -19.89300081	    -18.16207348	     49.61588114	     45.53932677	      0.00000000	      0.00000000	     18.11211020	    -12.78267982	    -15.28822911	     65.95526032	     47.98886914	      0.00000000	      0.00000000
     12.43778571	     -4.72325366	     -4.69175042	     -7.25215784	      1.06163884	      0.92719983	      0.57901260	     14.99062599	      5.38010020	     -8.13634729	     20.29485078	     20.29485078	     11.57550004	     -0.48750177	     -2.94380307	     18.31834637	    -13.73781562	     -1.52932176	     57.34110383	     57.34110383	     14.83383299	    -19.30391258	     18.90759814	    -10.18403152	      8.32494470	      1.07447995	      9.19349953	    -20.45124308	    -17.79263139	     50.24385511	     45.51813066	      0.00000000	      0.00000000	     17.65886291	    -12.11309841	    -13.61526334	     60.91605398	     47.77387221	      0.00000000	      0.00000000
     12.45700000	     -4.56559639	     -4.69386118	     -6.53552182	      1.06018631	      0.92721067	      0.58135794	     14.49649357	      5.51561769	     -8.22608703	     20.27349521	     20.27349521	     11.90286842	     -1.32432523	     -2.91377386	     19.89939330	    -13.87421120	     -0.83166553	     57.89319452	     57.89319452	     15.28052577	    -19.41636336	     19.55882865	    -10.36172495	      8.13181138	      0.49132268	     10.93834353	    -20.35498520	    -17.79617021	     51.48428954	     45.48580076	      0.00000000	      0.00000000	     16.02765110	    -11.79291966	    -12.76368938	     57.70650244	     47.64574099	      0.00000000	      0.00000000
     12.47621429	     -4.32732664	     -4.59605005	     -5.86315909	      1.05861406	      0.92719155	      0.58361264	     14.05874108	      5.57216755	     -8.07336038	     20.47293126	     20.47293126	     12.28917172	     -2.47575945	     -2.78752057	     21.33939428	    -13.83169765	     -0.33860932	     57.94035375	     57.94035375	     16.38793382	    -19.48442662	     21.67398851	    -10.55682295	      7.78995233	      1.03070800	     11.85548567	    -20.85094218	    -17.64636132	     52.59711169	     45.45982872	      0.00000000	      0.00000000	     16.19334800	    -11.06417425	    -10.55490856	     51.19793291	     47.37299934	      0.00000000	      0.00000000
     12.49542857	     -4.10439276	     -4.49570087	     -5.13876989	      1.05692414	      0.92682397	      0.58567775	     13.78154235	      5.57231119	     -8.08942764	     20.93237339	     20.93237339	     12.73358162	     -3.52811245	     -2.77821182	     22.68333288	    -13.78072582	     -0.04853213	     57.37714531	     57.37714531	     16.92194453	    -19.53614637	     21.85794774	    -10.84719391	      7.41839704	      0.36214286	     13.72670913	    -20.47300443	    -17.72354203	     54.16606843	     45.41917923	      0.00000000	      0.00000000	     14.44494642	    -10.78873229	     -9.81269693	     48.19038496	     47.25218592	      0.00000000	      0.00000000
     12.51464286	     -3.89230534	     -4.40844402	     -4.43272478	      1.05505350	      0.92627234	      0.58762081	     13.56099703	      5.62774759	     -7.96709893	     21.43863596	     21.43863596	     13.26277927	     -4.83782570	     -2.34736071	     23.98210532	    -13.66624615	      0.14280133	     56.38396020	     56.38396020	     17.66344882	    -19.56097137	     22.72100731	    -11.06903879	      7.06231085	      0.78128513	     14.71398125	    -20.79160153	    -17.63221607	     55.66497026	     45.38308935	      0.00000000	      0.00000000	     14.62142314	    -10.06696847	     -7.73035183	     41.53131540	     46.97987226	      0.00000000	      0.00000000
     12.53385714	     -3.71717702	     -4.20824914	     -3.70050352	      1.05310850	      0.92529814	      0.58932633	     13.59578661	      5.46969895	     -8.05178744	     22.34489640	     22.34489640	     13.84028480	     -5.88464830	     -2.44124522	     25.19147677	    -13.36130735	      0.19561794	     54.91665532	     54.91665532	     18.01201895	    -19.57094542	     22.65739258	    -11.34361624	      6.55295647	      0.22636502	     16.53678717	    -20.31785470	    -17.75439203	     57.40357333	     45.33811528	      0.00000000	      0.00000000	     12.80367092	     -9.75000380	     -7.15400803	     39.10437226	     46.87459122	      0.00000000	      0.00000000
     12.55307143	     -3.56984802	     -4.06548640	     -2.95123600	      1.05104685	      0.92412804	      0.59083965	     13.64545404	      5.38279600	     -8.13365273	     23.20350423	     23.20350423	     14.37439771	     -6.99477668	     -2.41930848	     26.34721126	    -13.01040000	      0.27364553	     53.12807613	     53.12807613	     18.20197737	    -19.56110776	     22.57641185	    -11.60527730	      6.13159811	     -0.12236128	     18.28236169	    -19.99542792	    -17.75631051	     59.02654008	     45.29252100	      0.00000000	      0.00000000	     11.16772960	     -9.30760900	     -6.51396994	     36.43283257	     46.76085278	      0.00000000	      0.00000000
     12.57228571	     -3.46013919	     -3.93972197	     -2.19152236	      1.04885532	      0.92275130	      0.59213618	     13.77583971	      5.28944440	     -8.27545823	     24.11598592	     24.11598592	     14.89934263	     -8.06614804	     -2.36743666	     27.44368072	    -12.56122529	      0.41727583	     51.08349042	     51.08349042	     18.14721364	    -19.55707078	     22.42363808	    -11.82664251	      5.71030779	     -0.33852119	     19.96227380	    -19.75335625	    -17.72097065	     60.63534458	     45.24590322	      0.00000000	      0.00000000	      9.62533722	     -8.82937002	     -5.90077675	     33.87286766	     46.64926185	      0.00000000	      0.00000000
